%TF.GenerationSoftware,KiCad,Pcbnew,10.0.0*%
%TF.CreationDate,2026-04-06T21:18:57+02:00*%
%TF.ProjectId,d20_pcb,6432305f-7063-4622-9e6b-696361645f70,rev?*%
%TF.SameCoordinates,Original*%
%TF.FileFunction,Drillmap*%
%TF.FilePolarity,Positive*%
%FSLAX45Y45*%
G04 Gerber Fmt 4.5, Leading zero omitted, Abs format (unit mm)*
G04 Created by KiCad (PCBNEW 10.0.0) date 2026-04-06 21:18:57*
%MOMM*%
%LPD*%
G01*
G04 APERTURE LIST*
%ADD10C,0.078619*%
%ADD11C,0.050000*%
%ADD12C,0.200000*%
%ADD13C,0.100000*%
G04 APERTURE END LIST*
D10*
X13627439Y-6699212D02*
X13645957Y-6699877D01*
X13664863Y-6700962D01*
X13684058Y-6702482D01*
X13703444Y-6704450D01*
X13722926Y-6706879D01*
X13742404Y-6709782D01*
X13761781Y-6713172D01*
X13780961Y-6717064D01*
X13799846Y-6721470D01*
X13818337Y-6726404D01*
X13836339Y-6731878D01*
X13853752Y-6737907D01*
X13870481Y-6744503D01*
X13886427Y-6751681D01*
X13901493Y-6759452D01*
X13914819Y-6767184D01*
X13927818Y-6775438D01*
X13940475Y-6784178D01*
X13952777Y-6793371D01*
X13964709Y-6802982D01*
X13976259Y-6812977D01*
X13987412Y-6823320D01*
X13998155Y-6833979D01*
X14008474Y-6844918D01*
X14018356Y-6856104D01*
X14027785Y-6867501D01*
X14036750Y-6879075D01*
X14045236Y-6890793D01*
X14053229Y-6902619D01*
X14060716Y-6914520D01*
X14067683Y-6926460D01*
X14074625Y-6939230D01*
X14081207Y-6952129D01*
X14087439Y-6965148D01*
X14093331Y-6978278D01*
X14098893Y-6991510D01*
X14104135Y-7004836D01*
X14109067Y-7018247D01*
X14113698Y-7031733D01*
X14122102Y-7058898D01*
X14129424Y-7086260D01*
X14135744Y-7113749D01*
X14141143Y-7141293D01*
X14144551Y-7165338D01*
X14147271Y-7194932D01*
X14150903Y-7266848D01*
X14152557Y-7349203D01*
X14152749Y-7434160D01*
X14150822Y-7580528D01*
X14149259Y-7643251D01*
X14191712Y-7675955D01*
X14340486Y-7757275D01*
X14482595Y-7838045D01*
X14620092Y-7918745D01*
X14755028Y-7999854D01*
X15310198Y-8337972D01*
X15348960Y-8363200D01*
X15389635Y-8387253D01*
X15474479Y-8433499D01*
X15560247Y-8480047D01*
X15602076Y-8504478D01*
X15642455Y-8530236D01*
X15661926Y-8543743D01*
X15680824Y-8557738D01*
X15699079Y-8572274D01*
X15716621Y-8587402D01*
X15733380Y-8603176D01*
X15749286Y-8619646D01*
X15764270Y-8636865D01*
X15778260Y-8654885D01*
X15791187Y-8673759D01*
X15802981Y-8693538D01*
X15813571Y-8714275D01*
X15822889Y-8736021D01*
X15830863Y-8758830D01*
X15837423Y-8782753D01*
X15842501Y-8807842D01*
X15846024Y-8834149D01*
X15856868Y-9387456D01*
X15861337Y-9941527D01*
X15856865Y-10495780D01*
X15850475Y-10772792D01*
X15840886Y-11049631D01*
X15837201Y-11094675D01*
X15832917Y-11139662D01*
X15827990Y-11184583D01*
X15822375Y-11229427D01*
X15620343Y-11366412D01*
X15415260Y-11498580D01*
X15207614Y-11626667D01*
X14997893Y-11751409D01*
X14574182Y-11993804D01*
X14148034Y-12231650D01*
X13815418Y-12423258D01*
X13772419Y-12442733D01*
X13728834Y-12458902D01*
X13706796Y-12465529D01*
X13684580Y-12471069D01*
X13662178Y-12475434D01*
X13639578Y-12478540D01*
X13616771Y-12480298D01*
X13593746Y-12480622D01*
X13570493Y-12479425D01*
X13547002Y-12476621D01*
X13523263Y-12472122D01*
X13499265Y-12465842D01*
X13474999Y-12457694D01*
X13450455Y-12447592D01*
X12979388Y-12187892D01*
X12510664Y-11922626D01*
X12045922Y-11650076D01*
X11815555Y-11510532D01*
X11586798Y-11368523D01*
X11559254Y-11356703D01*
X11533968Y-11343504D01*
X11510846Y-11328992D01*
X11489795Y-11313232D01*
X11470720Y-11296290D01*
X11453528Y-11278230D01*
X11438125Y-11259118D01*
X11424417Y-11239019D01*
X11412310Y-11217999D01*
X11401710Y-11196122D01*
X11392523Y-11173454D01*
X11384655Y-11150060D01*
X11378013Y-11126006D01*
X11372502Y-11101356D01*
X11364498Y-11050531D01*
X11359893Y-10998108D01*
X11357935Y-10944609D01*
X11358955Y-10836469D01*
X11361548Y-10730288D01*
X11361556Y-10679238D01*
X11359703Y-10630243D01*
X11351990Y-10227634D01*
X11349200Y-9824449D01*
X11352464Y-9421137D01*
X11362914Y-9018150D01*
X11360772Y-8997246D01*
X11359307Y-8976473D01*
X11358520Y-8955847D01*
X11358412Y-8935382D01*
X11358985Y-8915095D01*
X11360239Y-8895001D01*
X11362175Y-8875115D01*
X11364796Y-8855453D01*
X11368100Y-8836029D01*
X11372091Y-8816860D01*
X11376769Y-8797961D01*
X11382134Y-8779347D01*
X11388189Y-8761033D01*
X11394934Y-8743035D01*
X11402370Y-8725369D01*
X11410499Y-8708050D01*
X11419321Y-8691093D01*
X11428837Y-8674513D01*
X11439050Y-8658327D01*
X11449959Y-8642549D01*
X11461566Y-8627194D01*
X11473872Y-8612279D01*
X11486878Y-8597819D01*
X11500585Y-8583828D01*
X11514994Y-8570323D01*
X11530107Y-8557319D01*
X11545924Y-8544831D01*
X11562447Y-8532875D01*
X11579676Y-8521465D01*
X11597614Y-8510619D01*
X11616260Y-8500350D01*
X11635616Y-8490674D01*
X11812614Y-8388367D01*
X11984606Y-8286527D01*
X12320622Y-8084257D01*
X12657755Y-7883896D01*
X12831146Y-7784441D01*
X13010102Y-7685474D01*
X13047475Y-7659547D01*
X13044879Y-7594642D01*
X13040893Y-7443008D01*
X13040161Y-7354861D01*
X13041220Y-7269263D01*
X13044783Y-7194293D01*
X13047726Y-7163317D01*
X13051562Y-7138027D01*
X13057361Y-7109272D01*
X13063841Y-7080378D01*
X13067450Y-7065949D01*
X13071364Y-7051570D01*
X13075630Y-7037269D01*
X13080292Y-7023074D01*
X13085395Y-7009013D01*
X13090986Y-6995114D01*
X13097108Y-6981406D01*
X13103808Y-6967917D01*
X13111130Y-6954675D01*
X13119120Y-6941708D01*
X13127824Y-6929044D01*
X13137285Y-6916712D01*
X13148183Y-6903491D01*
X13159131Y-6890692D01*
X13170187Y-6878311D01*
X13181404Y-6866344D01*
X13192839Y-6854786D01*
X13204547Y-6843631D01*
X13216584Y-6832877D01*
X13229004Y-6822518D01*
X13241864Y-6812549D01*
X13255219Y-6802967D01*
X13269124Y-6793766D01*
X13283635Y-6784942D01*
X13298807Y-6776491D01*
X13314697Y-6768407D01*
X13331358Y-6760686D01*
X13348848Y-6753325D01*
X13364705Y-6747327D01*
X13381453Y-6741665D01*
X13398981Y-6736346D01*
X13417178Y-6731378D01*
X13435933Y-6726768D01*
X13455136Y-6722525D01*
X13494439Y-6715166D01*
X13534200Y-6709361D01*
X13573532Y-6705171D01*
X13611547Y-6702657D01*
X13647360Y-6701879D01*
X13609404Y-6698955D01*
X13627439Y-6699212D01*
D11*
X13780528Y-7156469D02*
G75*
G02*
X13414768Y-7156469I-182880J0D01*
G01*
X13414768Y-7156469D02*
G75*
G02*
X13780528Y-7156469I182880J0D01*
G01*
D12*
D13*
X11469368Y-10252969D02*
X11499368Y-10282969D01*
X11499368Y-10252969D02*
X11469368Y-10282969D01*
X11530328Y-9369049D02*
X11560328Y-9399049D01*
X11560328Y-9369049D02*
X11530328Y-9399049D01*
X11540488Y-10562849D02*
X11570488Y-10592849D01*
X11570488Y-10562849D02*
X11540488Y-10592849D01*
X11692888Y-9059169D02*
X11722888Y-9089169D01*
X11722888Y-9059169D02*
X11692888Y-9089169D01*
X11700508Y-10585709D02*
X11730508Y-10615709D01*
X11730508Y-10585709D02*
X11700508Y-10615709D01*
X11700508Y-11053069D02*
X11730508Y-11083069D01*
X11730508Y-11053069D02*
X11700508Y-11083069D01*
X11725908Y-10311389D02*
X11755908Y-10341389D01*
X11755908Y-10311389D02*
X11725908Y-10341389D01*
X12060808Y-8415274D02*
X12090808Y-8445274D01*
X12090808Y-8415274D02*
X12060808Y-8445274D01*
X12317728Y-11352789D02*
X12347728Y-11382789D01*
X12347728Y-11352789D02*
X12317728Y-11382789D01*
X12345668Y-8477509D02*
X12375668Y-8507509D01*
X12375668Y-8477509D02*
X12345668Y-8507509D01*
X12351576Y-8239576D02*
X12381576Y-8269576D01*
X12381576Y-8239576D02*
X12351576Y-8269576D01*
X12526008Y-8342889D02*
X12556008Y-8372889D01*
X12556008Y-8342889D02*
X12526008Y-8372889D01*
X12533628Y-8147309D02*
X12563628Y-8177309D01*
X12563628Y-8147309D02*
X12533628Y-8177309D01*
X12558648Y-11732524D02*
X12588648Y-11762524D01*
X12588648Y-11732524D02*
X12558648Y-11762524D01*
X12741908Y-8223509D02*
X12771908Y-8253509D01*
X12771908Y-8223509D02*
X12741908Y-8253509D01*
X12795248Y-8017769D02*
X12825248Y-8047769D01*
X12825248Y-8017769D02*
X12795248Y-8047769D01*
X12876528Y-7933949D02*
X12906528Y-7963949D01*
X12906528Y-7933949D02*
X12876528Y-7963949D01*
X13038708Y-11990329D02*
X13068708Y-12020329D01*
X13068708Y-11990329D02*
X13038708Y-12020329D01*
X13308328Y-11990329D02*
X13338328Y-12020329D01*
X13338328Y-11990329D02*
X13308328Y-12020329D01*
X13493748Y-12226549D02*
X13523748Y-12256549D01*
X13523748Y-12226549D02*
X13493748Y-12256549D01*
X13635988Y-12241789D02*
X13665988Y-12271789D01*
X13665988Y-12241789D02*
X13635988Y-12271789D01*
X14118588Y-8015229D02*
X14148588Y-8045229D01*
X14148588Y-8015229D02*
X14118588Y-8045229D01*
X14296388Y-9493509D02*
X14326388Y-9523509D01*
X14326388Y-9493509D02*
X14296388Y-9523509D01*
X14489428Y-11797289D02*
X14519428Y-11827289D01*
X14519428Y-11797289D02*
X14489428Y-11827289D01*
X14494508Y-10486649D02*
X14524508Y-10516649D01*
X14524508Y-10486649D02*
X14494508Y-10516649D01*
X14530068Y-9772909D02*
X14560068Y-9802909D01*
X14560068Y-9772909D02*
X14530068Y-9802909D01*
X14532608Y-8406389D02*
X14562608Y-8436389D01*
X14562608Y-8406389D02*
X14532608Y-8436389D01*
X14596108Y-8104129D02*
X14626108Y-8134129D01*
X14626108Y-8104129D02*
X14596108Y-8134129D01*
X14634208Y-10209789D02*
X14664208Y-10239789D01*
X14664208Y-10209789D02*
X14634208Y-10239789D01*
X14801848Y-11639809D02*
X14831848Y-11669809D01*
X14831848Y-11639809D02*
X14801848Y-11669809D01*
X14834868Y-9605269D02*
X14864868Y-9635269D01*
X14864868Y-9605269D02*
X14834868Y-9635269D01*
X14898368Y-9112509D02*
X14928368Y-9142509D01*
X14928368Y-9112509D02*
X14898368Y-9142509D01*
X14979648Y-9186169D02*
X15009648Y-9216169D01*
X15009648Y-9186169D02*
X14979648Y-9216169D01*
X15335248Y-11314689D02*
X15365248Y-11344689D01*
X15365248Y-11314689D02*
X15335248Y-11344689D01*
X15408908Y-10335000D02*
X15438908Y-10365000D01*
X15438908Y-10335000D02*
X15408908Y-10365000D01*
X15431768Y-8561329D02*
X15461768Y-8591329D01*
X15461768Y-8561329D02*
X15431768Y-8591329D01*
X15449548Y-8850889D02*
X15479548Y-8880889D01*
X15479548Y-8850889D02*
X15449548Y-8880889D01*
X15449548Y-11053069D02*
X15479548Y-11083069D01*
X15479548Y-11053069D02*
X15449548Y-11083069D01*
X15457168Y-10700009D02*
X15487168Y-10730009D01*
X15487168Y-10700009D02*
X15457168Y-10730009D01*
X15459308Y-9620509D02*
X15489308Y-9650509D01*
X15489308Y-9620509D02*
X15459308Y-9650509D01*
X15523208Y-9082029D02*
X15553208Y-9112029D01*
X15553208Y-9082029D02*
X15523208Y-9112029D01*
X15535908Y-9595109D02*
X15565908Y-9625109D01*
X15565908Y-9595109D02*
X15535908Y-9625109D01*
X15667988Y-9178549D02*
X15697988Y-9208549D01*
X15697988Y-9178549D02*
X15667988Y-9208549D01*
X15673068Y-10395199D02*
X15703068Y-10425199D01*
X15703068Y-10395199D02*
X15673068Y-10425199D01*
X15716248Y-10687309D02*
X15746248Y-10717309D01*
X15746248Y-10687309D02*
X15716248Y-10717309D01*
X15741250Y-9591250D02*
X15771250Y-9621250D01*
X15771250Y-9591250D02*
X15741250Y-9621250D01*
X11792788Y-9690049D02*
G75*
G02*
X11702788Y-9690049I-45000J0D01*
G01*
X11702788Y-9690049D02*
G75*
G02*
X11792788Y-9690049I45000J0D01*
G01*
X11792788Y-9990049D02*
G75*
G02*
X11702788Y-9990049I-45000J0D01*
G01*
X11702788Y-9990049D02*
G75*
G02*
X11792788Y-9990049I45000J0D01*
G01*
D12*
X11606045Y-12796037D02*
X11606045Y-12596037D01*
X11606045Y-12596037D02*
X11653664Y-12596037D01*
X11653664Y-12596037D02*
X11682236Y-12605560D01*
X11682236Y-12605560D02*
X11701284Y-12624608D01*
X11701284Y-12624608D02*
X11710807Y-12643656D01*
X11710807Y-12643656D02*
X11720331Y-12681751D01*
X11720331Y-12681751D02*
X11720331Y-12710322D01*
X11720331Y-12710322D02*
X11710807Y-12748417D01*
X11710807Y-12748417D02*
X11701284Y-12767465D01*
X11701284Y-12767465D02*
X11682236Y-12786513D01*
X11682236Y-12786513D02*
X11653664Y-12796037D01*
X11653664Y-12796037D02*
X11606045Y-12796037D01*
X11806045Y-12796037D02*
X11806045Y-12662703D01*
X11806045Y-12700798D02*
X11815569Y-12681751D01*
X11815569Y-12681751D02*
X11825093Y-12672227D01*
X11825093Y-12672227D02*
X11844141Y-12662703D01*
X11844141Y-12662703D02*
X11863188Y-12662703D01*
X11929855Y-12796037D02*
X11929855Y-12662703D01*
X11929855Y-12596037D02*
X11920331Y-12605560D01*
X11920331Y-12605560D02*
X11929855Y-12615084D01*
X11929855Y-12615084D02*
X11939379Y-12605560D01*
X11939379Y-12605560D02*
X11929855Y-12596037D01*
X11929855Y-12596037D02*
X11929855Y-12615084D01*
X12053664Y-12796037D02*
X12034617Y-12786513D01*
X12034617Y-12786513D02*
X12025093Y-12767465D01*
X12025093Y-12767465D02*
X12025093Y-12596037D01*
X12158426Y-12796037D02*
X12139379Y-12786513D01*
X12139379Y-12786513D02*
X12129855Y-12767465D01*
X12129855Y-12767465D02*
X12129855Y-12596037D01*
X12386998Y-12796037D02*
X12386998Y-12596037D01*
X12386998Y-12596037D02*
X12453665Y-12738894D01*
X12453665Y-12738894D02*
X12520331Y-12596037D01*
X12520331Y-12596037D02*
X12520331Y-12796037D01*
X12701284Y-12796037D02*
X12701284Y-12691275D01*
X12701284Y-12691275D02*
X12691760Y-12672227D01*
X12691760Y-12672227D02*
X12672712Y-12662703D01*
X12672712Y-12662703D02*
X12634617Y-12662703D01*
X12634617Y-12662703D02*
X12615569Y-12672227D01*
X12701284Y-12786513D02*
X12682236Y-12796037D01*
X12682236Y-12796037D02*
X12634617Y-12796037D01*
X12634617Y-12796037D02*
X12615569Y-12786513D01*
X12615569Y-12786513D02*
X12606045Y-12767465D01*
X12606045Y-12767465D02*
X12606045Y-12748417D01*
X12606045Y-12748417D02*
X12615569Y-12729370D01*
X12615569Y-12729370D02*
X12634617Y-12719846D01*
X12634617Y-12719846D02*
X12682236Y-12719846D01*
X12682236Y-12719846D02*
X12701284Y-12710322D01*
X12796522Y-12662703D02*
X12796522Y-12862703D01*
X12796522Y-12672227D02*
X12815569Y-12662703D01*
X12815569Y-12662703D02*
X12853665Y-12662703D01*
X12853665Y-12662703D02*
X12872712Y-12672227D01*
X12872712Y-12672227D02*
X12882236Y-12681751D01*
X12882236Y-12681751D02*
X12891760Y-12700798D01*
X12891760Y-12700798D02*
X12891760Y-12757941D01*
X12891760Y-12757941D02*
X12882236Y-12776989D01*
X12882236Y-12776989D02*
X12872712Y-12786513D01*
X12872712Y-12786513D02*
X12853665Y-12796037D01*
X12853665Y-12796037D02*
X12815569Y-12796037D01*
X12815569Y-12796037D02*
X12796522Y-12786513D01*
X12977474Y-12776989D02*
X12986998Y-12786513D01*
X12986998Y-12786513D02*
X12977474Y-12796037D01*
X12977474Y-12796037D02*
X12967950Y-12786513D01*
X12967950Y-12786513D02*
X12977474Y-12776989D01*
X12977474Y-12776989D02*
X12977474Y-12796037D01*
X12977474Y-12672227D02*
X12986998Y-12681751D01*
X12986998Y-12681751D02*
X12977474Y-12691275D01*
X12977474Y-12691275D02*
X12967950Y-12681751D01*
X12967950Y-12681751D02*
X12977474Y-12672227D01*
X12977474Y-12672227D02*
X12977474Y-12691275D01*
D13*
X11315269Y-13109553D02*
X11345269Y-13139553D01*
X11345269Y-13109553D02*
X11315269Y-13139553D01*
D12*
X11644141Y-13016037D02*
X11663188Y-13016037D01*
X11663188Y-13016037D02*
X11682236Y-13025560D01*
X11682236Y-13025560D02*
X11691760Y-13035084D01*
X11691760Y-13035084D02*
X11701284Y-13054132D01*
X11701284Y-13054132D02*
X11710807Y-13092227D01*
X11710807Y-13092227D02*
X11710807Y-13139846D01*
X11710807Y-13139846D02*
X11701284Y-13177941D01*
X11701284Y-13177941D02*
X11691760Y-13196989D01*
X11691760Y-13196989D02*
X11682236Y-13206513D01*
X11682236Y-13206513D02*
X11663188Y-13216037D01*
X11663188Y-13216037D02*
X11644141Y-13216037D01*
X11644141Y-13216037D02*
X11625093Y-13206513D01*
X11625093Y-13206513D02*
X11615569Y-13196989D01*
X11615569Y-13196989D02*
X11606045Y-13177941D01*
X11606045Y-13177941D02*
X11596522Y-13139846D01*
X11596522Y-13139846D02*
X11596522Y-13092227D01*
X11596522Y-13092227D02*
X11606045Y-13054132D01*
X11606045Y-13054132D02*
X11615569Y-13035084D01*
X11615569Y-13035084D02*
X11625093Y-13025560D01*
X11625093Y-13025560D02*
X11644141Y-13016037D01*
X11796522Y-13196989D02*
X11806045Y-13206513D01*
X11806045Y-13206513D02*
X11796522Y-13216037D01*
X11796522Y-13216037D02*
X11786998Y-13206513D01*
X11786998Y-13206513D02*
X11796522Y-13196989D01*
X11796522Y-13196989D02*
X11796522Y-13216037D01*
X11872712Y-13016037D02*
X11996522Y-13016037D01*
X11996522Y-13016037D02*
X11929855Y-13092227D01*
X11929855Y-13092227D02*
X11958426Y-13092227D01*
X11958426Y-13092227D02*
X11977474Y-13101751D01*
X11977474Y-13101751D02*
X11986998Y-13111275D01*
X11986998Y-13111275D02*
X11996522Y-13130322D01*
X11996522Y-13130322D02*
X11996522Y-13177941D01*
X11996522Y-13177941D02*
X11986998Y-13196989D01*
X11986998Y-13196989D02*
X11977474Y-13206513D01*
X11977474Y-13206513D02*
X11958426Y-13216037D01*
X11958426Y-13216037D02*
X11901284Y-13216037D01*
X11901284Y-13216037D02*
X11882236Y-13206513D01*
X11882236Y-13206513D02*
X11872712Y-13196989D01*
X12120331Y-13016037D02*
X12139379Y-13016037D01*
X12139379Y-13016037D02*
X12158426Y-13025560D01*
X12158426Y-13025560D02*
X12167950Y-13035084D01*
X12167950Y-13035084D02*
X12177474Y-13054132D01*
X12177474Y-13054132D02*
X12186998Y-13092227D01*
X12186998Y-13092227D02*
X12186998Y-13139846D01*
X12186998Y-13139846D02*
X12177474Y-13177941D01*
X12177474Y-13177941D02*
X12167950Y-13196989D01*
X12167950Y-13196989D02*
X12158426Y-13206513D01*
X12158426Y-13206513D02*
X12139379Y-13216037D01*
X12139379Y-13216037D02*
X12120331Y-13216037D01*
X12120331Y-13216037D02*
X12101284Y-13206513D01*
X12101284Y-13206513D02*
X12091760Y-13196989D01*
X12091760Y-13196989D02*
X12082236Y-13177941D01*
X12082236Y-13177941D02*
X12072712Y-13139846D01*
X12072712Y-13139846D02*
X12072712Y-13092227D01*
X12072712Y-13092227D02*
X12082236Y-13054132D01*
X12082236Y-13054132D02*
X12091760Y-13035084D01*
X12091760Y-13035084D02*
X12101284Y-13025560D01*
X12101284Y-13025560D02*
X12120331Y-13016037D01*
X12310807Y-13016037D02*
X12329855Y-13016037D01*
X12329855Y-13016037D02*
X12348903Y-13025560D01*
X12348903Y-13025560D02*
X12358426Y-13035084D01*
X12358426Y-13035084D02*
X12367950Y-13054132D01*
X12367950Y-13054132D02*
X12377474Y-13092227D01*
X12377474Y-13092227D02*
X12377474Y-13139846D01*
X12377474Y-13139846D02*
X12367950Y-13177941D01*
X12367950Y-13177941D02*
X12358426Y-13196989D01*
X12358426Y-13196989D02*
X12348903Y-13206513D01*
X12348903Y-13206513D02*
X12329855Y-13216037D01*
X12329855Y-13216037D02*
X12310807Y-13216037D01*
X12310807Y-13216037D02*
X12291760Y-13206513D01*
X12291760Y-13206513D02*
X12282236Y-13196989D01*
X12282236Y-13196989D02*
X12272712Y-13177941D01*
X12272712Y-13177941D02*
X12263188Y-13139846D01*
X12263188Y-13139846D02*
X12263188Y-13092227D01*
X12263188Y-13092227D02*
X12272712Y-13054132D01*
X12272712Y-13054132D02*
X12282236Y-13035084D01*
X12282236Y-13035084D02*
X12291760Y-13025560D01*
X12291760Y-13025560D02*
X12310807Y-13016037D01*
X12463188Y-13216037D02*
X12463188Y-13082703D01*
X12463188Y-13101751D02*
X12472712Y-13092227D01*
X12472712Y-13092227D02*
X12491760Y-13082703D01*
X12491760Y-13082703D02*
X12520331Y-13082703D01*
X12520331Y-13082703D02*
X12539379Y-13092227D01*
X12539379Y-13092227D02*
X12548903Y-13111275D01*
X12548903Y-13111275D02*
X12548903Y-13216037D01*
X12548903Y-13111275D02*
X12558426Y-13092227D01*
X12558426Y-13092227D02*
X12577474Y-13082703D01*
X12577474Y-13082703D02*
X12606045Y-13082703D01*
X12606045Y-13082703D02*
X12625093Y-13092227D01*
X12625093Y-13092227D02*
X12634617Y-13111275D01*
X12634617Y-13111275D02*
X12634617Y-13216037D01*
X12729855Y-13216037D02*
X12729855Y-13082703D01*
X12729855Y-13101751D02*
X12739379Y-13092227D01*
X12739379Y-13092227D02*
X12758426Y-13082703D01*
X12758426Y-13082703D02*
X12786998Y-13082703D01*
X12786998Y-13082703D02*
X12806046Y-13092227D01*
X12806046Y-13092227D02*
X12815569Y-13111275D01*
X12815569Y-13111275D02*
X12815569Y-13216037D01*
X12815569Y-13111275D02*
X12825093Y-13092227D01*
X12825093Y-13092227D02*
X12844141Y-13082703D01*
X12844141Y-13082703D02*
X12872712Y-13082703D01*
X12872712Y-13082703D02*
X12891760Y-13092227D01*
X12891760Y-13092227D02*
X12901284Y-13111275D01*
X12901284Y-13111275D02*
X12901284Y-13216037D01*
X13291760Y-13006513D02*
X13120331Y-13263656D01*
X13548903Y-13016037D02*
X13567950Y-13016037D01*
X13567950Y-13016037D02*
X13586998Y-13025560D01*
X13586998Y-13025560D02*
X13596522Y-13035084D01*
X13596522Y-13035084D02*
X13606046Y-13054132D01*
X13606046Y-13054132D02*
X13615569Y-13092227D01*
X13615569Y-13092227D02*
X13615569Y-13139846D01*
X13615569Y-13139846D02*
X13606046Y-13177941D01*
X13606046Y-13177941D02*
X13596522Y-13196989D01*
X13596522Y-13196989D02*
X13586998Y-13206513D01*
X13586998Y-13206513D02*
X13567950Y-13216037D01*
X13567950Y-13216037D02*
X13548903Y-13216037D01*
X13548903Y-13216037D02*
X13529855Y-13206513D01*
X13529855Y-13206513D02*
X13520331Y-13196989D01*
X13520331Y-13196989D02*
X13510808Y-13177941D01*
X13510808Y-13177941D02*
X13501284Y-13139846D01*
X13501284Y-13139846D02*
X13501284Y-13092227D01*
X13501284Y-13092227D02*
X13510808Y-13054132D01*
X13510808Y-13054132D02*
X13520331Y-13035084D01*
X13520331Y-13035084D02*
X13529855Y-13025560D01*
X13529855Y-13025560D02*
X13548903Y-13016037D01*
X13701284Y-13196989D02*
X13710808Y-13206513D01*
X13710808Y-13206513D02*
X13701284Y-13216037D01*
X13701284Y-13216037D02*
X13691760Y-13206513D01*
X13691760Y-13206513D02*
X13701284Y-13196989D01*
X13701284Y-13196989D02*
X13701284Y-13216037D01*
X13834617Y-13016037D02*
X13853665Y-13016037D01*
X13853665Y-13016037D02*
X13872712Y-13025560D01*
X13872712Y-13025560D02*
X13882236Y-13035084D01*
X13882236Y-13035084D02*
X13891760Y-13054132D01*
X13891760Y-13054132D02*
X13901284Y-13092227D01*
X13901284Y-13092227D02*
X13901284Y-13139846D01*
X13901284Y-13139846D02*
X13891760Y-13177941D01*
X13891760Y-13177941D02*
X13882236Y-13196989D01*
X13882236Y-13196989D02*
X13872712Y-13206513D01*
X13872712Y-13206513D02*
X13853665Y-13216037D01*
X13853665Y-13216037D02*
X13834617Y-13216037D01*
X13834617Y-13216037D02*
X13815569Y-13206513D01*
X13815569Y-13206513D02*
X13806046Y-13196989D01*
X13806046Y-13196989D02*
X13796522Y-13177941D01*
X13796522Y-13177941D02*
X13786998Y-13139846D01*
X13786998Y-13139846D02*
X13786998Y-13092227D01*
X13786998Y-13092227D02*
X13796522Y-13054132D01*
X13796522Y-13054132D02*
X13806046Y-13035084D01*
X13806046Y-13035084D02*
X13815569Y-13025560D01*
X13815569Y-13025560D02*
X13834617Y-13016037D01*
X14091760Y-13216037D02*
X13977474Y-13216037D01*
X14034617Y-13216037D02*
X14034617Y-13016037D01*
X14034617Y-13016037D02*
X14015569Y-13044608D01*
X14015569Y-13044608D02*
X13996522Y-13063656D01*
X13996522Y-13063656D02*
X13977474Y-13073179D01*
X14282236Y-13216037D02*
X14167950Y-13216037D01*
X14225093Y-13216037D02*
X14225093Y-13016037D01*
X14225093Y-13016037D02*
X14206046Y-13044608D01*
X14206046Y-13044608D02*
X14186998Y-13063656D01*
X14186998Y-13063656D02*
X14167950Y-13073179D01*
X14396522Y-13101751D02*
X14377474Y-13092227D01*
X14377474Y-13092227D02*
X14367950Y-13082703D01*
X14367950Y-13082703D02*
X14358427Y-13063656D01*
X14358427Y-13063656D02*
X14358427Y-13054132D01*
X14358427Y-13054132D02*
X14367950Y-13035084D01*
X14367950Y-13035084D02*
X14377474Y-13025560D01*
X14377474Y-13025560D02*
X14396522Y-13016037D01*
X14396522Y-13016037D02*
X14434617Y-13016037D01*
X14434617Y-13016037D02*
X14453665Y-13025560D01*
X14453665Y-13025560D02*
X14463189Y-13035084D01*
X14463189Y-13035084D02*
X14472712Y-13054132D01*
X14472712Y-13054132D02*
X14472712Y-13063656D01*
X14472712Y-13063656D02*
X14463189Y-13082703D01*
X14463189Y-13082703D02*
X14453665Y-13092227D01*
X14453665Y-13092227D02*
X14434617Y-13101751D01*
X14434617Y-13101751D02*
X14396522Y-13101751D01*
X14396522Y-13101751D02*
X14377474Y-13111275D01*
X14377474Y-13111275D02*
X14367950Y-13120798D01*
X14367950Y-13120798D02*
X14358427Y-13139846D01*
X14358427Y-13139846D02*
X14358427Y-13177941D01*
X14358427Y-13177941D02*
X14367950Y-13196989D01*
X14367950Y-13196989D02*
X14377474Y-13206513D01*
X14377474Y-13206513D02*
X14396522Y-13216037D01*
X14396522Y-13216037D02*
X14434617Y-13216037D01*
X14434617Y-13216037D02*
X14453665Y-13206513D01*
X14453665Y-13206513D02*
X14463189Y-13196989D01*
X14463189Y-13196989D02*
X14472712Y-13177941D01*
X14472712Y-13177941D02*
X14472712Y-13139846D01*
X14472712Y-13139846D02*
X14463189Y-13120798D01*
X14463189Y-13120798D02*
X14453665Y-13111275D01*
X14453665Y-13111275D02*
X14434617Y-13101751D01*
X14548903Y-13016037D02*
X14548903Y-13054132D01*
X14625093Y-13016037D02*
X14625093Y-13054132D01*
X14920332Y-13292227D02*
X14910808Y-13282703D01*
X14910808Y-13282703D02*
X14891760Y-13254132D01*
X14891760Y-13254132D02*
X14882236Y-13235084D01*
X14882236Y-13235084D02*
X14872712Y-13206513D01*
X14872712Y-13206513D02*
X14863189Y-13158894D01*
X14863189Y-13158894D02*
X14863189Y-13120798D01*
X14863189Y-13120798D02*
X14872712Y-13073179D01*
X14872712Y-13073179D02*
X14882236Y-13044608D01*
X14882236Y-13044608D02*
X14891760Y-13025560D01*
X14891760Y-13025560D02*
X14910808Y-12996989D01*
X14910808Y-12996989D02*
X14920332Y-12987465D01*
X15082236Y-13082703D02*
X15082236Y-13216037D01*
X15034617Y-13006513D02*
X14986998Y-13149370D01*
X14986998Y-13149370D02*
X15110808Y-13149370D01*
X15272712Y-13016037D02*
X15234617Y-13016037D01*
X15234617Y-13016037D02*
X15215570Y-13025560D01*
X15215570Y-13025560D02*
X15206046Y-13035084D01*
X15206046Y-13035084D02*
X15186998Y-13063656D01*
X15186998Y-13063656D02*
X15177474Y-13101751D01*
X15177474Y-13101751D02*
X15177474Y-13177941D01*
X15177474Y-13177941D02*
X15186998Y-13196989D01*
X15186998Y-13196989D02*
X15196522Y-13206513D01*
X15196522Y-13206513D02*
X15215570Y-13216037D01*
X15215570Y-13216037D02*
X15253665Y-13216037D01*
X15253665Y-13216037D02*
X15272712Y-13206513D01*
X15272712Y-13206513D02*
X15282236Y-13196989D01*
X15282236Y-13196989D02*
X15291760Y-13177941D01*
X15291760Y-13177941D02*
X15291760Y-13130322D01*
X15291760Y-13130322D02*
X15282236Y-13111275D01*
X15282236Y-13111275D02*
X15272712Y-13101751D01*
X15272712Y-13101751D02*
X15253665Y-13092227D01*
X15253665Y-13092227D02*
X15215570Y-13092227D01*
X15215570Y-13092227D02*
X15196522Y-13101751D01*
X15196522Y-13101751D02*
X15186998Y-13111275D01*
X15186998Y-13111275D02*
X15177474Y-13130322D01*
X15529855Y-13216037D02*
X15529855Y-13016037D01*
X15615570Y-13216037D02*
X15615570Y-13111275D01*
X15615570Y-13111275D02*
X15606046Y-13092227D01*
X15606046Y-13092227D02*
X15586998Y-13082703D01*
X15586998Y-13082703D02*
X15558427Y-13082703D01*
X15558427Y-13082703D02*
X15539379Y-13092227D01*
X15539379Y-13092227D02*
X15529855Y-13101751D01*
X15739379Y-13216037D02*
X15720332Y-13206513D01*
X15720332Y-13206513D02*
X15710808Y-13196989D01*
X15710808Y-13196989D02*
X15701284Y-13177941D01*
X15701284Y-13177941D02*
X15701284Y-13120798D01*
X15701284Y-13120798D02*
X15710808Y-13101751D01*
X15710808Y-13101751D02*
X15720332Y-13092227D01*
X15720332Y-13092227D02*
X15739379Y-13082703D01*
X15739379Y-13082703D02*
X15767951Y-13082703D01*
X15767951Y-13082703D02*
X15786998Y-13092227D01*
X15786998Y-13092227D02*
X15796522Y-13101751D01*
X15796522Y-13101751D02*
X15806046Y-13120798D01*
X15806046Y-13120798D02*
X15806046Y-13177941D01*
X15806046Y-13177941D02*
X15796522Y-13196989D01*
X15796522Y-13196989D02*
X15786998Y-13206513D01*
X15786998Y-13206513D02*
X15767951Y-13216037D01*
X15767951Y-13216037D02*
X15739379Y-13216037D01*
X15920332Y-13216037D02*
X15901284Y-13206513D01*
X15901284Y-13206513D02*
X15891760Y-13187465D01*
X15891760Y-13187465D02*
X15891760Y-13016037D01*
X16072713Y-13206513D02*
X16053665Y-13216037D01*
X16053665Y-13216037D02*
X16015570Y-13216037D01*
X16015570Y-13216037D02*
X15996522Y-13206513D01*
X15996522Y-13206513D02*
X15986998Y-13187465D01*
X15986998Y-13187465D02*
X15986998Y-13111275D01*
X15986998Y-13111275D02*
X15996522Y-13092227D01*
X15996522Y-13092227D02*
X16015570Y-13082703D01*
X16015570Y-13082703D02*
X16053665Y-13082703D01*
X16053665Y-13082703D02*
X16072713Y-13092227D01*
X16072713Y-13092227D02*
X16082236Y-13111275D01*
X16082236Y-13111275D02*
X16082236Y-13130322D01*
X16082236Y-13130322D02*
X15986998Y-13149370D01*
X16158427Y-13206513D02*
X16177474Y-13216037D01*
X16177474Y-13216037D02*
X16215570Y-13216037D01*
X16215570Y-13216037D02*
X16234617Y-13206513D01*
X16234617Y-13206513D02*
X16244141Y-13187465D01*
X16244141Y-13187465D02*
X16244141Y-13177941D01*
X16244141Y-13177941D02*
X16234617Y-13158894D01*
X16234617Y-13158894D02*
X16215570Y-13149370D01*
X16215570Y-13149370D02*
X16186998Y-13149370D01*
X16186998Y-13149370D02*
X16167951Y-13139846D01*
X16167951Y-13139846D02*
X16158427Y-13120798D01*
X16158427Y-13120798D02*
X16158427Y-13111275D01*
X16158427Y-13111275D02*
X16167951Y-13092227D01*
X16167951Y-13092227D02*
X16186998Y-13082703D01*
X16186998Y-13082703D02*
X16215570Y-13082703D01*
X16215570Y-13082703D02*
X16234617Y-13092227D01*
X16310808Y-13292227D02*
X16320332Y-13282703D01*
X16320332Y-13282703D02*
X16339379Y-13254132D01*
X16339379Y-13254132D02*
X16348903Y-13235084D01*
X16348903Y-13235084D02*
X16358427Y-13206513D01*
X16358427Y-13206513D02*
X16367951Y-13158894D01*
X16367951Y-13158894D02*
X16367951Y-13120798D01*
X16367951Y-13120798D02*
X16358427Y-13073179D01*
X16358427Y-13073179D02*
X16348903Y-13044608D01*
X16348903Y-13044608D02*
X16339379Y-13025560D01*
X16339379Y-13025560D02*
X16320332Y-12996989D01*
X16320332Y-12996989D02*
X16310808Y-12987465D01*
D13*
X11345269Y-13388553D02*
G75*
G02*
X11255269Y-13388553I-45000J0D01*
G01*
X11255269Y-13388553D02*
G75*
G02*
X11345269Y-13388553I45000J0D01*
G01*
D12*
X11644141Y-13280037D02*
X11663188Y-13280037D01*
X11663188Y-13280037D02*
X11682236Y-13289560D01*
X11682236Y-13289560D02*
X11691760Y-13299084D01*
X11691760Y-13299084D02*
X11701284Y-13318132D01*
X11701284Y-13318132D02*
X11710807Y-13356227D01*
X11710807Y-13356227D02*
X11710807Y-13403846D01*
X11710807Y-13403846D02*
X11701284Y-13441941D01*
X11701284Y-13441941D02*
X11691760Y-13460989D01*
X11691760Y-13460989D02*
X11682236Y-13470513D01*
X11682236Y-13470513D02*
X11663188Y-13480037D01*
X11663188Y-13480037D02*
X11644141Y-13480037D01*
X11644141Y-13480037D02*
X11625093Y-13470513D01*
X11625093Y-13470513D02*
X11615569Y-13460989D01*
X11615569Y-13460989D02*
X11606045Y-13441941D01*
X11606045Y-13441941D02*
X11596522Y-13403846D01*
X11596522Y-13403846D02*
X11596522Y-13356227D01*
X11596522Y-13356227D02*
X11606045Y-13318132D01*
X11606045Y-13318132D02*
X11615569Y-13299084D01*
X11615569Y-13299084D02*
X11625093Y-13289560D01*
X11625093Y-13289560D02*
X11644141Y-13280037D01*
X11796522Y-13460989D02*
X11806045Y-13470513D01*
X11806045Y-13470513D02*
X11796522Y-13480037D01*
X11796522Y-13480037D02*
X11786998Y-13470513D01*
X11786998Y-13470513D02*
X11796522Y-13460989D01*
X11796522Y-13460989D02*
X11796522Y-13480037D01*
X11901284Y-13480037D02*
X11939379Y-13480037D01*
X11939379Y-13480037D02*
X11958426Y-13470513D01*
X11958426Y-13470513D02*
X11967950Y-13460989D01*
X11967950Y-13460989D02*
X11986998Y-13432417D01*
X11986998Y-13432417D02*
X11996522Y-13394322D01*
X11996522Y-13394322D02*
X11996522Y-13318132D01*
X11996522Y-13318132D02*
X11986998Y-13299084D01*
X11986998Y-13299084D02*
X11977474Y-13289560D01*
X11977474Y-13289560D02*
X11958426Y-13280037D01*
X11958426Y-13280037D02*
X11920331Y-13280037D01*
X11920331Y-13280037D02*
X11901284Y-13289560D01*
X11901284Y-13289560D02*
X11891760Y-13299084D01*
X11891760Y-13299084D02*
X11882236Y-13318132D01*
X11882236Y-13318132D02*
X11882236Y-13365751D01*
X11882236Y-13365751D02*
X11891760Y-13384798D01*
X11891760Y-13384798D02*
X11901284Y-13394322D01*
X11901284Y-13394322D02*
X11920331Y-13403846D01*
X11920331Y-13403846D02*
X11958426Y-13403846D01*
X11958426Y-13403846D02*
X11977474Y-13394322D01*
X11977474Y-13394322D02*
X11986998Y-13384798D01*
X11986998Y-13384798D02*
X11996522Y-13365751D01*
X12120331Y-13280037D02*
X12139379Y-13280037D01*
X12139379Y-13280037D02*
X12158426Y-13289560D01*
X12158426Y-13289560D02*
X12167950Y-13299084D01*
X12167950Y-13299084D02*
X12177474Y-13318132D01*
X12177474Y-13318132D02*
X12186998Y-13356227D01*
X12186998Y-13356227D02*
X12186998Y-13403846D01*
X12186998Y-13403846D02*
X12177474Y-13441941D01*
X12177474Y-13441941D02*
X12167950Y-13460989D01*
X12167950Y-13460989D02*
X12158426Y-13470513D01*
X12158426Y-13470513D02*
X12139379Y-13480037D01*
X12139379Y-13480037D02*
X12120331Y-13480037D01*
X12120331Y-13480037D02*
X12101284Y-13470513D01*
X12101284Y-13470513D02*
X12091760Y-13460989D01*
X12091760Y-13460989D02*
X12082236Y-13441941D01*
X12082236Y-13441941D02*
X12072712Y-13403846D01*
X12072712Y-13403846D02*
X12072712Y-13356227D01*
X12072712Y-13356227D02*
X12082236Y-13318132D01*
X12082236Y-13318132D02*
X12091760Y-13299084D01*
X12091760Y-13299084D02*
X12101284Y-13289560D01*
X12101284Y-13289560D02*
X12120331Y-13280037D01*
X12310807Y-13280037D02*
X12329855Y-13280037D01*
X12329855Y-13280037D02*
X12348903Y-13289560D01*
X12348903Y-13289560D02*
X12358426Y-13299084D01*
X12358426Y-13299084D02*
X12367950Y-13318132D01*
X12367950Y-13318132D02*
X12377474Y-13356227D01*
X12377474Y-13356227D02*
X12377474Y-13403846D01*
X12377474Y-13403846D02*
X12367950Y-13441941D01*
X12367950Y-13441941D02*
X12358426Y-13460989D01*
X12358426Y-13460989D02*
X12348903Y-13470513D01*
X12348903Y-13470513D02*
X12329855Y-13480037D01*
X12329855Y-13480037D02*
X12310807Y-13480037D01*
X12310807Y-13480037D02*
X12291760Y-13470513D01*
X12291760Y-13470513D02*
X12282236Y-13460989D01*
X12282236Y-13460989D02*
X12272712Y-13441941D01*
X12272712Y-13441941D02*
X12263188Y-13403846D01*
X12263188Y-13403846D02*
X12263188Y-13356227D01*
X12263188Y-13356227D02*
X12272712Y-13318132D01*
X12272712Y-13318132D02*
X12282236Y-13299084D01*
X12282236Y-13299084D02*
X12291760Y-13289560D01*
X12291760Y-13289560D02*
X12310807Y-13280037D01*
X12463188Y-13480037D02*
X12463188Y-13346703D01*
X12463188Y-13365751D02*
X12472712Y-13356227D01*
X12472712Y-13356227D02*
X12491760Y-13346703D01*
X12491760Y-13346703D02*
X12520331Y-13346703D01*
X12520331Y-13346703D02*
X12539379Y-13356227D01*
X12539379Y-13356227D02*
X12548903Y-13375275D01*
X12548903Y-13375275D02*
X12548903Y-13480037D01*
X12548903Y-13375275D02*
X12558426Y-13356227D01*
X12558426Y-13356227D02*
X12577474Y-13346703D01*
X12577474Y-13346703D02*
X12606045Y-13346703D01*
X12606045Y-13346703D02*
X12625093Y-13356227D01*
X12625093Y-13356227D02*
X12634617Y-13375275D01*
X12634617Y-13375275D02*
X12634617Y-13480037D01*
X12729855Y-13480037D02*
X12729855Y-13346703D01*
X12729855Y-13365751D02*
X12739379Y-13356227D01*
X12739379Y-13356227D02*
X12758426Y-13346703D01*
X12758426Y-13346703D02*
X12786998Y-13346703D01*
X12786998Y-13346703D02*
X12806046Y-13356227D01*
X12806046Y-13356227D02*
X12815569Y-13375275D01*
X12815569Y-13375275D02*
X12815569Y-13480037D01*
X12815569Y-13375275D02*
X12825093Y-13356227D01*
X12825093Y-13356227D02*
X12844141Y-13346703D01*
X12844141Y-13346703D02*
X12872712Y-13346703D01*
X12872712Y-13346703D02*
X12891760Y-13356227D01*
X12891760Y-13356227D02*
X12901284Y-13375275D01*
X12901284Y-13375275D02*
X12901284Y-13480037D01*
X13291760Y-13270513D02*
X13120331Y-13527656D01*
X13548903Y-13280037D02*
X13567950Y-13280037D01*
X13567950Y-13280037D02*
X13586998Y-13289560D01*
X13586998Y-13289560D02*
X13596522Y-13299084D01*
X13596522Y-13299084D02*
X13606046Y-13318132D01*
X13606046Y-13318132D02*
X13615569Y-13356227D01*
X13615569Y-13356227D02*
X13615569Y-13403846D01*
X13615569Y-13403846D02*
X13606046Y-13441941D01*
X13606046Y-13441941D02*
X13596522Y-13460989D01*
X13596522Y-13460989D02*
X13586998Y-13470513D01*
X13586998Y-13470513D02*
X13567950Y-13480037D01*
X13567950Y-13480037D02*
X13548903Y-13480037D01*
X13548903Y-13480037D02*
X13529855Y-13470513D01*
X13529855Y-13470513D02*
X13520331Y-13460989D01*
X13520331Y-13460989D02*
X13510808Y-13441941D01*
X13510808Y-13441941D02*
X13501284Y-13403846D01*
X13501284Y-13403846D02*
X13501284Y-13356227D01*
X13501284Y-13356227D02*
X13510808Y-13318132D01*
X13510808Y-13318132D02*
X13520331Y-13299084D01*
X13520331Y-13299084D02*
X13529855Y-13289560D01*
X13529855Y-13289560D02*
X13548903Y-13280037D01*
X13701284Y-13460989D02*
X13710808Y-13470513D01*
X13710808Y-13470513D02*
X13701284Y-13480037D01*
X13701284Y-13480037D02*
X13691760Y-13470513D01*
X13691760Y-13470513D02*
X13701284Y-13460989D01*
X13701284Y-13460989D02*
X13701284Y-13480037D01*
X13834617Y-13280037D02*
X13853665Y-13280037D01*
X13853665Y-13280037D02*
X13872712Y-13289560D01*
X13872712Y-13289560D02*
X13882236Y-13299084D01*
X13882236Y-13299084D02*
X13891760Y-13318132D01*
X13891760Y-13318132D02*
X13901284Y-13356227D01*
X13901284Y-13356227D02*
X13901284Y-13403846D01*
X13901284Y-13403846D02*
X13891760Y-13441941D01*
X13891760Y-13441941D02*
X13882236Y-13460989D01*
X13882236Y-13460989D02*
X13872712Y-13470513D01*
X13872712Y-13470513D02*
X13853665Y-13480037D01*
X13853665Y-13480037D02*
X13834617Y-13480037D01*
X13834617Y-13480037D02*
X13815569Y-13470513D01*
X13815569Y-13470513D02*
X13806046Y-13460989D01*
X13806046Y-13460989D02*
X13796522Y-13441941D01*
X13796522Y-13441941D02*
X13786998Y-13403846D01*
X13786998Y-13403846D02*
X13786998Y-13356227D01*
X13786998Y-13356227D02*
X13796522Y-13318132D01*
X13796522Y-13318132D02*
X13806046Y-13299084D01*
X13806046Y-13299084D02*
X13815569Y-13289560D01*
X13815569Y-13289560D02*
X13834617Y-13280037D01*
X13967950Y-13280037D02*
X14091760Y-13280037D01*
X14091760Y-13280037D02*
X14025093Y-13356227D01*
X14025093Y-13356227D02*
X14053665Y-13356227D01*
X14053665Y-13356227D02*
X14072712Y-13365751D01*
X14072712Y-13365751D02*
X14082236Y-13375275D01*
X14082236Y-13375275D02*
X14091760Y-13394322D01*
X14091760Y-13394322D02*
X14091760Y-13441941D01*
X14091760Y-13441941D02*
X14082236Y-13460989D01*
X14082236Y-13460989D02*
X14072712Y-13470513D01*
X14072712Y-13470513D02*
X14053665Y-13480037D01*
X14053665Y-13480037D02*
X13996522Y-13480037D01*
X13996522Y-13480037D02*
X13977474Y-13470513D01*
X13977474Y-13470513D02*
X13967950Y-13460989D01*
X14272712Y-13280037D02*
X14177474Y-13280037D01*
X14177474Y-13280037D02*
X14167950Y-13375275D01*
X14167950Y-13375275D02*
X14177474Y-13365751D01*
X14177474Y-13365751D02*
X14196522Y-13356227D01*
X14196522Y-13356227D02*
X14244141Y-13356227D01*
X14244141Y-13356227D02*
X14263189Y-13365751D01*
X14263189Y-13365751D02*
X14272712Y-13375275D01*
X14272712Y-13375275D02*
X14282236Y-13394322D01*
X14282236Y-13394322D02*
X14282236Y-13441941D01*
X14282236Y-13441941D02*
X14272712Y-13460989D01*
X14272712Y-13460989D02*
X14263189Y-13470513D01*
X14263189Y-13470513D02*
X14244141Y-13480037D01*
X14244141Y-13480037D02*
X14196522Y-13480037D01*
X14196522Y-13480037D02*
X14177474Y-13470513D01*
X14177474Y-13470513D02*
X14167950Y-13460989D01*
X14453665Y-13346703D02*
X14453665Y-13480037D01*
X14406046Y-13270513D02*
X14358427Y-13413370D01*
X14358427Y-13413370D02*
X14482236Y-13413370D01*
X14548903Y-13280037D02*
X14548903Y-13318132D01*
X14625093Y-13280037D02*
X14625093Y-13318132D01*
X14920332Y-13556227D02*
X14910808Y-13546703D01*
X14910808Y-13546703D02*
X14891760Y-13518132D01*
X14891760Y-13518132D02*
X14882236Y-13499084D01*
X14882236Y-13499084D02*
X14872712Y-13470513D01*
X14872712Y-13470513D02*
X14863189Y-13422894D01*
X14863189Y-13422894D02*
X14863189Y-13384798D01*
X14863189Y-13384798D02*
X14872712Y-13337179D01*
X14872712Y-13337179D02*
X14882236Y-13308608D01*
X14882236Y-13308608D02*
X14891760Y-13289560D01*
X14891760Y-13289560D02*
X14910808Y-13260989D01*
X14910808Y-13260989D02*
X14920332Y-13251465D01*
X14986998Y-13299084D02*
X14996522Y-13289560D01*
X14996522Y-13289560D02*
X15015570Y-13280037D01*
X15015570Y-13280037D02*
X15063189Y-13280037D01*
X15063189Y-13280037D02*
X15082236Y-13289560D01*
X15082236Y-13289560D02*
X15091760Y-13299084D01*
X15091760Y-13299084D02*
X15101284Y-13318132D01*
X15101284Y-13318132D02*
X15101284Y-13337179D01*
X15101284Y-13337179D02*
X15091760Y-13365751D01*
X15091760Y-13365751D02*
X14977474Y-13480037D01*
X14977474Y-13480037D02*
X15101284Y-13480037D01*
X15339379Y-13480037D02*
X15339379Y-13280037D01*
X15425093Y-13480037D02*
X15425093Y-13375275D01*
X15425093Y-13375275D02*
X15415570Y-13356227D01*
X15415570Y-13356227D02*
X15396522Y-13346703D01*
X15396522Y-13346703D02*
X15367951Y-13346703D01*
X15367951Y-13346703D02*
X15348903Y-13356227D01*
X15348903Y-13356227D02*
X15339379Y-13365751D01*
X15548903Y-13480037D02*
X15529855Y-13470513D01*
X15529855Y-13470513D02*
X15520332Y-13460989D01*
X15520332Y-13460989D02*
X15510808Y-13441941D01*
X15510808Y-13441941D02*
X15510808Y-13384798D01*
X15510808Y-13384798D02*
X15520332Y-13365751D01*
X15520332Y-13365751D02*
X15529855Y-13356227D01*
X15529855Y-13356227D02*
X15548903Y-13346703D01*
X15548903Y-13346703D02*
X15577474Y-13346703D01*
X15577474Y-13346703D02*
X15596522Y-13356227D01*
X15596522Y-13356227D02*
X15606046Y-13365751D01*
X15606046Y-13365751D02*
X15615570Y-13384798D01*
X15615570Y-13384798D02*
X15615570Y-13441941D01*
X15615570Y-13441941D02*
X15606046Y-13460989D01*
X15606046Y-13460989D02*
X15596522Y-13470513D01*
X15596522Y-13470513D02*
X15577474Y-13480037D01*
X15577474Y-13480037D02*
X15548903Y-13480037D01*
X15729855Y-13480037D02*
X15710808Y-13470513D01*
X15710808Y-13470513D02*
X15701284Y-13451465D01*
X15701284Y-13451465D02*
X15701284Y-13280037D01*
X15882236Y-13470513D02*
X15863189Y-13480037D01*
X15863189Y-13480037D02*
X15825093Y-13480037D01*
X15825093Y-13480037D02*
X15806046Y-13470513D01*
X15806046Y-13470513D02*
X15796522Y-13451465D01*
X15796522Y-13451465D02*
X15796522Y-13375275D01*
X15796522Y-13375275D02*
X15806046Y-13356227D01*
X15806046Y-13356227D02*
X15825093Y-13346703D01*
X15825093Y-13346703D02*
X15863189Y-13346703D01*
X15863189Y-13346703D02*
X15882236Y-13356227D01*
X15882236Y-13356227D02*
X15891760Y-13375275D01*
X15891760Y-13375275D02*
X15891760Y-13394322D01*
X15891760Y-13394322D02*
X15796522Y-13413370D01*
X15967951Y-13470513D02*
X15986998Y-13480037D01*
X15986998Y-13480037D02*
X16025093Y-13480037D01*
X16025093Y-13480037D02*
X16044141Y-13470513D01*
X16044141Y-13470513D02*
X16053665Y-13451465D01*
X16053665Y-13451465D02*
X16053665Y-13441941D01*
X16053665Y-13441941D02*
X16044141Y-13422894D01*
X16044141Y-13422894D02*
X16025093Y-13413370D01*
X16025093Y-13413370D02*
X15996522Y-13413370D01*
X15996522Y-13413370D02*
X15977474Y-13403846D01*
X15977474Y-13403846D02*
X15967951Y-13384798D01*
X15967951Y-13384798D02*
X15967951Y-13375275D01*
X15967951Y-13375275D02*
X15977474Y-13356227D01*
X15977474Y-13356227D02*
X15996522Y-13346703D01*
X15996522Y-13346703D02*
X16025093Y-13346703D01*
X16025093Y-13346703D02*
X16044141Y-13356227D01*
X16120332Y-13556227D02*
X16129855Y-13546703D01*
X16129855Y-13546703D02*
X16148903Y-13518132D01*
X16148903Y-13518132D02*
X16158427Y-13499084D01*
X16158427Y-13499084D02*
X16167951Y-13470513D01*
X16167951Y-13470513D02*
X16177474Y-13422894D01*
X16177474Y-13422894D02*
X16177474Y-13384798D01*
X16177474Y-13384798D02*
X16167951Y-13337179D01*
X16167951Y-13337179D02*
X16158427Y-13308608D01*
X16158427Y-13308608D02*
X16148903Y-13289560D01*
X16148903Y-13289560D02*
X16129855Y-13260989D01*
X16129855Y-13260989D02*
X16120332Y-13251465D01*
X16482236Y-13556227D02*
X16472713Y-13546703D01*
X16472713Y-13546703D02*
X16453665Y-13518132D01*
X16453665Y-13518132D02*
X16444141Y-13499084D01*
X16444141Y-13499084D02*
X16434617Y-13470513D01*
X16434617Y-13470513D02*
X16425094Y-13422894D01*
X16425094Y-13422894D02*
X16425094Y-13384798D01*
X16425094Y-13384798D02*
X16434617Y-13337179D01*
X16434617Y-13337179D02*
X16444141Y-13308608D01*
X16444141Y-13308608D02*
X16453665Y-13289560D01*
X16453665Y-13289560D02*
X16472713Y-13260989D01*
X16472713Y-13260989D02*
X16482236Y-13251465D01*
X16558427Y-13346703D02*
X16558427Y-13480037D01*
X16558427Y-13365751D02*
X16567951Y-13356227D01*
X16567951Y-13356227D02*
X16586998Y-13346703D01*
X16586998Y-13346703D02*
X16615570Y-13346703D01*
X16615570Y-13346703D02*
X16634617Y-13356227D01*
X16634617Y-13356227D02*
X16644141Y-13375275D01*
X16644141Y-13375275D02*
X16644141Y-13480037D01*
X16767951Y-13480037D02*
X16748903Y-13470513D01*
X16748903Y-13470513D02*
X16739379Y-13460989D01*
X16739379Y-13460989D02*
X16729855Y-13441941D01*
X16729855Y-13441941D02*
X16729855Y-13384798D01*
X16729855Y-13384798D02*
X16739379Y-13365751D01*
X16739379Y-13365751D02*
X16748903Y-13356227D01*
X16748903Y-13356227D02*
X16767951Y-13346703D01*
X16767951Y-13346703D02*
X16796522Y-13346703D01*
X16796522Y-13346703D02*
X16815570Y-13356227D01*
X16815570Y-13356227D02*
X16825094Y-13365751D01*
X16825094Y-13365751D02*
X16834617Y-13384798D01*
X16834617Y-13384798D02*
X16834617Y-13441941D01*
X16834617Y-13441941D02*
X16825094Y-13460989D01*
X16825094Y-13460989D02*
X16815570Y-13470513D01*
X16815570Y-13470513D02*
X16796522Y-13480037D01*
X16796522Y-13480037D02*
X16767951Y-13480037D01*
X16891760Y-13346703D02*
X16967951Y-13346703D01*
X16920332Y-13280037D02*
X16920332Y-13451465D01*
X16920332Y-13451465D02*
X16929856Y-13470513D01*
X16929856Y-13470513D02*
X16948903Y-13480037D01*
X16948903Y-13480037D02*
X16967951Y-13480037D01*
X17186998Y-13346703D02*
X17186998Y-13546703D01*
X17186998Y-13356227D02*
X17206046Y-13346703D01*
X17206046Y-13346703D02*
X17244141Y-13346703D01*
X17244141Y-13346703D02*
X17263189Y-13356227D01*
X17263189Y-13356227D02*
X17272713Y-13365751D01*
X17272713Y-13365751D02*
X17282237Y-13384798D01*
X17282237Y-13384798D02*
X17282237Y-13441941D01*
X17282237Y-13441941D02*
X17272713Y-13460989D01*
X17272713Y-13460989D02*
X17263189Y-13470513D01*
X17263189Y-13470513D02*
X17244141Y-13480037D01*
X17244141Y-13480037D02*
X17206046Y-13480037D01*
X17206046Y-13480037D02*
X17186998Y-13470513D01*
X17396522Y-13480037D02*
X17377475Y-13470513D01*
X17377475Y-13470513D02*
X17367951Y-13451465D01*
X17367951Y-13451465D02*
X17367951Y-13280037D01*
X17558427Y-13480037D02*
X17558427Y-13375275D01*
X17558427Y-13375275D02*
X17548903Y-13356227D01*
X17548903Y-13356227D02*
X17529856Y-13346703D01*
X17529856Y-13346703D02*
X17491760Y-13346703D01*
X17491760Y-13346703D02*
X17472713Y-13356227D01*
X17558427Y-13470513D02*
X17539379Y-13480037D01*
X17539379Y-13480037D02*
X17491760Y-13480037D01*
X17491760Y-13480037D02*
X17472713Y-13470513D01*
X17472713Y-13470513D02*
X17463189Y-13451465D01*
X17463189Y-13451465D02*
X17463189Y-13432417D01*
X17463189Y-13432417D02*
X17472713Y-13413370D01*
X17472713Y-13413370D02*
X17491760Y-13403846D01*
X17491760Y-13403846D02*
X17539379Y-13403846D01*
X17539379Y-13403846D02*
X17558427Y-13394322D01*
X17625094Y-13346703D02*
X17701284Y-13346703D01*
X17653665Y-13280037D02*
X17653665Y-13451465D01*
X17653665Y-13451465D02*
X17663189Y-13470513D01*
X17663189Y-13470513D02*
X17682237Y-13480037D01*
X17682237Y-13480037D02*
X17701284Y-13480037D01*
X17844141Y-13470513D02*
X17825094Y-13480037D01*
X17825094Y-13480037D02*
X17786998Y-13480037D01*
X17786998Y-13480037D02*
X17767951Y-13470513D01*
X17767951Y-13470513D02*
X17758427Y-13451465D01*
X17758427Y-13451465D02*
X17758427Y-13375275D01*
X17758427Y-13375275D02*
X17767951Y-13356227D01*
X17767951Y-13356227D02*
X17786998Y-13346703D01*
X17786998Y-13346703D02*
X17825094Y-13346703D01*
X17825094Y-13346703D02*
X17844141Y-13356227D01*
X17844141Y-13356227D02*
X17853665Y-13375275D01*
X17853665Y-13375275D02*
X17853665Y-13394322D01*
X17853665Y-13394322D02*
X17758427Y-13413370D01*
X18025094Y-13480037D02*
X18025094Y-13280037D01*
X18025094Y-13470513D02*
X18006046Y-13480037D01*
X18006046Y-13480037D02*
X17967951Y-13480037D01*
X17967951Y-13480037D02*
X17948903Y-13470513D01*
X17948903Y-13470513D02*
X17939379Y-13460989D01*
X17939379Y-13460989D02*
X17929856Y-13441941D01*
X17929856Y-13441941D02*
X17929856Y-13384798D01*
X17929856Y-13384798D02*
X17939379Y-13365751D01*
X17939379Y-13365751D02*
X17948903Y-13356227D01*
X17948903Y-13356227D02*
X17967951Y-13346703D01*
X17967951Y-13346703D02*
X18006046Y-13346703D01*
X18006046Y-13346703D02*
X18025094Y-13356227D01*
X18101284Y-13556227D02*
X18110808Y-13546703D01*
X18110808Y-13546703D02*
X18129856Y-13518132D01*
X18129856Y-13518132D02*
X18139379Y-13499084D01*
X18139379Y-13499084D02*
X18148903Y-13470513D01*
X18148903Y-13470513D02*
X18158427Y-13422894D01*
X18158427Y-13422894D02*
X18158427Y-13384798D01*
X18158427Y-13384798D02*
X18148903Y-13337179D01*
X18148903Y-13337179D02*
X18139379Y-13308608D01*
X18139379Y-13308608D02*
X18129856Y-13289560D01*
X18129856Y-13289560D02*
X18110808Y-13260989D01*
X18110808Y-13260989D02*
X18101284Y-13251465D01*
M02*
