%TF.GenerationSoftware,KiCad,Pcbnew,9.0.7*%
%TF.CreationDate,2026-03-09T19:47:44+01:00*%
%TF.ProjectId,d20_pcb,6432305f-7063-4622-9e6b-696361645f70,rev?*%
%TF.SameCoordinates,Original*%
%TF.FileFunction,Profile,NP*%
%FSLAX46Y46*%
G04 Gerber Fmt 4.6, Leading zero omitted, Abs format (unit mm)*
G04 Created by KiCad (PCBNEW 9.0.7) date 2026-03-09 19:47:44*
%MOMM*%
%LPD*%
G01*
G04 APERTURE LIST*
%TA.AperFunction,Profile*%
%ADD10C,0.078619*%
%TD*%
%TA.AperFunction,Profile*%
%ADD11C,0.050000*%
%TD*%
G04 APERTURE END LIST*
D10*
X136274387Y-66992122D02*
X136459574Y-66998767D01*
X136648629Y-67009622D01*
X136840578Y-67024822D01*
X137034445Y-67044499D01*
X137229256Y-67068786D01*
X137424038Y-67097817D01*
X137617815Y-67131725D01*
X137809612Y-67170642D01*
X137998457Y-67214702D01*
X138183373Y-67264039D01*
X138363386Y-67318784D01*
X138537523Y-67379072D01*
X138704808Y-67445035D01*
X138864268Y-67516807D01*
X139014927Y-67594521D01*
X139148193Y-67671845D01*
X139278179Y-67754380D01*
X139404750Y-67841784D01*
X139527766Y-67933712D01*
X139647092Y-68029820D01*
X139762590Y-68129766D01*
X139874123Y-68233204D01*
X139981553Y-68339792D01*
X140084743Y-68449184D01*
X140183556Y-68561038D01*
X140277855Y-68675010D01*
X140367502Y-68790755D01*
X140452360Y-68907931D01*
X140532293Y-69026193D01*
X140607162Y-69145197D01*
X140676830Y-69264599D01*
X140746247Y-69392299D01*
X140812066Y-69521287D01*
X140874386Y-69651476D01*
X140933306Y-69782776D01*
X140988927Y-69915101D01*
X141041347Y-70048360D01*
X141090667Y-70182467D01*
X141136985Y-70317331D01*
X141221016Y-70588981D01*
X141294236Y-70862602D01*
X141357440Y-71137487D01*
X141411427Y-71412929D01*
X141445509Y-71653378D01*
X141472706Y-71949317D01*
X141509028Y-72668476D01*
X141525566Y-73492028D01*
X141527494Y-74341597D01*
X141508219Y-75805279D01*
X141492595Y-76432509D01*
X141917121Y-76759552D01*
X143404858Y-77572752D01*
X144825952Y-78380454D01*
X146200919Y-79187453D01*
X147550277Y-79998543D01*
X153101976Y-83379722D01*
X153489600Y-83632005D01*
X153896347Y-83872528D01*
X154744790Y-84334985D01*
X155602471Y-84800468D01*
X156020765Y-85044775D01*
X156424555Y-85302355D01*
X156619260Y-85437426D01*
X156808238Y-85577381D01*
X156990788Y-85722739D01*
X157166209Y-85874024D01*
X157333801Y-86031756D01*
X157492864Y-86196456D01*
X157642696Y-86368648D01*
X157782598Y-86548851D01*
X157911868Y-86737588D01*
X158029807Y-86935379D01*
X158135713Y-87142748D01*
X158228887Y-87360214D01*
X158308627Y-87588300D01*
X158374234Y-87827527D01*
X158425006Y-88078416D01*
X158460243Y-88341490D01*
X158568681Y-93874556D01*
X158613373Y-99415272D01*
X158568654Y-104957802D01*
X158504746Y-107727924D01*
X158408860Y-110496312D01*
X158372014Y-110946754D01*
X158329175Y-111396622D01*
X158279902Y-111845826D01*
X158223754Y-112294275D01*
X156203433Y-113664121D01*
X154152600Y-114985800D01*
X152076138Y-116266672D01*
X149978932Y-117514095D01*
X145741821Y-119938036D01*
X141480336Y-122316499D01*
X138154177Y-124232577D01*
X137724190Y-124427335D01*
X137288337Y-124589018D01*
X137067957Y-124655287D01*
X136845805Y-124710686D01*
X136621781Y-124754345D01*
X136395783Y-124785399D01*
X136167710Y-124802979D01*
X135937459Y-124806219D01*
X135704929Y-124794250D01*
X135470019Y-124766206D01*
X135232628Y-124721218D01*
X134992653Y-124658420D01*
X134749994Y-124576945D01*
X134504548Y-124475924D01*
X129793881Y-121878921D01*
X125106645Y-119226259D01*
X120459219Y-116500756D01*
X118155554Y-115105320D01*
X115867984Y-113685231D01*
X115592538Y-113567028D01*
X115339676Y-113435041D01*
X115108459Y-113289922D01*
X114897947Y-113132324D01*
X114707202Y-112962900D01*
X114535284Y-112782302D01*
X114381254Y-112591182D01*
X114244172Y-112390194D01*
X114123101Y-112179989D01*
X114017100Y-111961220D01*
X113925230Y-111734540D01*
X113846553Y-111500602D01*
X113780128Y-111260057D01*
X113725018Y-111013559D01*
X113644981Y-110505312D01*
X113598929Y-109981081D01*
X113579349Y-109446087D01*
X113589551Y-108364689D01*
X113615479Y-107302883D01*
X113615557Y-106792378D01*
X113597026Y-106302431D01*
X113519898Y-102276344D01*
X113491996Y-98244488D01*
X113524638Y-94211371D01*
X113629140Y-90181499D01*
X113607720Y-89972459D01*
X113593069Y-89764730D01*
X113585200Y-89558467D01*
X113584123Y-89353823D01*
X113589849Y-89150953D01*
X113602389Y-88950011D01*
X113621755Y-88751151D01*
X113647956Y-88554526D01*
X113681005Y-88360291D01*
X113720912Y-88168600D01*
X113767688Y-87979607D01*
X113821344Y-87793466D01*
X113881891Y-87610330D01*
X113949339Y-87430354D01*
X114023701Y-87253693D01*
X114104987Y-87080499D01*
X114193207Y-86910927D01*
X114288374Y-86745132D01*
X114390497Y-86583266D01*
X114499588Y-86425485D01*
X114615657Y-86271942D01*
X114738716Y-86122791D01*
X114868776Y-85978186D01*
X115005848Y-85838281D01*
X115149942Y-85703231D01*
X115301070Y-85573189D01*
X115459242Y-85448309D01*
X115624470Y-85328746D01*
X115796764Y-85214653D01*
X115976136Y-85106185D01*
X116162596Y-85003495D01*
X116356156Y-84906737D01*
X118126138Y-83883675D01*
X119846063Y-82865267D01*
X123206216Y-80842572D01*
X126577555Y-78838960D01*
X128311463Y-77844407D01*
X130101021Y-76854739D01*
X130474746Y-76595467D01*
X130448789Y-75946422D01*
X130408934Y-74430080D01*
X130401614Y-73548607D01*
X130412203Y-72692631D01*
X130447829Y-71942927D01*
X130477258Y-71633168D01*
X130515619Y-71380267D01*
X130573611Y-71092722D01*
X130638413Y-70803783D01*
X130674498Y-70659494D01*
X130713642Y-70515703D01*
X130756298Y-70372691D01*
X130802918Y-70230739D01*
X130853954Y-70090129D01*
X130909859Y-69951144D01*
X130971084Y-69814064D01*
X131038082Y-69679173D01*
X131111305Y-69546751D01*
X131191205Y-69417080D01*
X131278236Y-69290443D01*
X131372848Y-69167121D01*
X131481826Y-69034908D01*
X131591314Y-68906921D01*
X131701868Y-68783114D01*
X131814043Y-68663441D01*
X131928392Y-68547856D01*
X132045472Y-68436315D01*
X132165836Y-68328772D01*
X132290041Y-68225181D01*
X132418639Y-68125495D01*
X132552187Y-68029671D01*
X132691239Y-67937662D01*
X132836350Y-67849422D01*
X132988074Y-67764906D01*
X133146967Y-67684069D01*
X133313583Y-67606864D01*
X133488477Y-67533246D01*
X133647051Y-67473269D01*
X133814532Y-67416649D01*
X133989813Y-67363461D01*
X134171783Y-67313781D01*
X134359335Y-67267685D01*
X134551359Y-67225249D01*
X134944388Y-67151657D01*
X135341998Y-67093610D01*
X135735318Y-67051713D01*
X136115475Y-67026572D01*
X136473599Y-67018792D01*
X136094042Y-66989555D01*
X136274387Y-66992122D01*
D11*
X137805284Y-71564687D02*
G75*
G02*
X134147684Y-71564687I-1828800J0D01*
G01*
X134147684Y-71564687D02*
G75*
G02*
X137805284Y-71564687I1828800J0D01*
G01*
M02*
