M48
; DRILL file KiCad 10.0.0 date 2026-04-06T21:18:57
; FORMAT={-:-/ absolute / metric / decimal}
; #@! TF.CreationDate,2026-04-06T21:18:57+02:00
; #@! TF.GenerationSoftware,Kicad,Pcbnew,10.0.0
; #@! TF.FileFunction,MixedPlating,1,2
FMAT,2
METRIC
; #@! TA.AperFunction,Plated,PTH,ViaDrill
T1C0.300
; #@! TA.AperFunction,NonPlated,NPTH,ComponentDrill
T2C0.900
%
G90
G05
T1
X114.844Y-102.68
X115.453Y-93.84
X115.555Y-105.778
X117.079Y-90.742
X117.155Y-106.007
X117.155Y-110.681
X117.409Y-103.264
X120.758Y-84.303
X123.327Y-113.678
X123.607Y-84.925
X123.666Y-82.546
X125.41Y-83.579
X125.486Y-81.623
X125.736Y-117.475
X127.569Y-82.385
X128.102Y-80.328
X128.915Y-79.489
X130.537Y-120.053
X133.233Y-120.053
X135.087Y-122.415
X136.51Y-122.568
X141.336Y-80.302
X143.114Y-95.085
X145.044Y-118.123
X145.095Y-105.016
X145.451Y-97.879
X145.476Y-84.214
X146.111Y-81.191
X146.492Y-102.248
X148.168Y-116.548
X148.499Y-96.203
X149.134Y-91.275
X149.946Y-92.012
X153.502Y-113.297
X154.239Y-103.5
X154.468Y-85.763
X154.645Y-88.659
X154.645Y-110.681
X154.722Y-107.15
X154.743Y-96.355
X155.382Y-90.97
X155.509Y-96.101
X156.83Y-91.935
X156.881Y-104.102
X157.312Y-107.023
X157.562Y-96.062
T2
X117.478Y-96.9
X117.478Y-99.9
M30
