G04 #@! TF.GenerationSoftware,KiCad,Pcbnew,10.0.0*
G04 #@! TF.CreationDate,2026-04-06T21:16:42+02:00*
G04 #@! TF.ProjectId,d20_pcb,6432305f-7063-4622-9e6b-696361645f70,rev?*
G04 #@! TF.SameCoordinates,Original*
G04 #@! TF.FileFunction,Paste,Top*
G04 #@! TF.FilePolarity,Positive*
%FSLAX46Y46*%
G04 Gerber Fmt 4.6, Leading zero omitted, Abs format (unit mm)*
G04 Created by KiCad (PCBNEW 10.0.0) date 2026-04-06 21:16:42*
%MOMM*%
%LPD*%
G01*
G04 APERTURE LIST*
G04 Aperture macros list*
%AMRoundRect*
0 Rectangle with rounded corners*
0 $1 Rounding radius*
0 $2 $3 $4 $5 $6 $7 $8 $9 X,Y pos of 4 corners*
0 Add a 4 corners polygon primitive as box body*
4,1,4,$2,$3,$4,$5,$6,$7,$8,$9,$2,$3,0*
0 Add four circle primitives for the rounded corners*
1,1,$1+$1,$2,$3*
1,1,$1+$1,$4,$5*
1,1,$1+$1,$6,$7*
1,1,$1+$1,$8,$9*
0 Add four rect primitives between the rounded corners*
20,1,$1+$1,$2,$3,$4,$5,0*
20,1,$1+$1,$4,$5,$6,$7,0*
20,1,$1+$1,$6,$7,$8,$9,0*
20,1,$1+$1,$8,$9,$2,$3,0*%
%AMFreePoly0*
4,1,478,-5.381558,13.839074,-5.378769,13.837971,-5.347690,13.812777,-5.347096,13.812208,-5.309362,13.769601,-5.309089,13.769264,-5.250375,13.690095,-5.250273,13.689953,-5.170618,13.574295,-5.070223,13.422455,-4.949074,13.234425,-4.807356,13.010499,-4.645130,12.750776,-4.462496,12.455421,-4.259520,12.124539,-4.036322,11.758328,-3.792987,11.356923,-3.529608,10.920478,-3.246278,10.449142,-2.943089,9.943067,
-2.620141,9.402411,-2.620139,9.402406,-2.277518,8.827314,-2.263999,8.804595,-1.950630,8.277631,-1.635619,7.747344,-1.319782,7.215120,-1.003931,6.682348,-0.688881,6.150416,-0.375444,5.620711,-0.064436,5.094624,0.243331,4.573538,0.547043,4.058845,0.845885,3.551931,1.139044,3.054185,1.425707,2.566993,1.705058,2.091747,1.705060,2.091745,1.976288,1.629828,2.238578,1.182630,
2.491115,0.751541,2.491117,0.751539,2.733090,0.337943,2.963684,-0.056771,3.182085,-0.431213,3.387480,-0.783998,3.579055,-1.113736,3.755995,-1.419040,3.917489,-1.698523,4.062721,-1.950798,4.190880,-2.174477,4.301152,-2.368174,4.392727,-2.530507,4.464795,-2.660097,4.516507,-2.755490,4.537743,-2.796360,4.537912,-2.796720,4.582093,-2.901338,4.582424,-2.902492,4.595432,-2.983730,
4.595295,-2.985920,4.576800,-3.049399,4.575570,-3.051500,4.525242,-3.102838,4.524513,-3.103452,4.518219,-3.107798,4.518025,-3.107926,4.493144,-3.123455,4.492800,-3.123651,4.465101,-3.138025,4.464705,-3.138209,4.432595,-3.151461,4.432208,-3.151602,4.394095,-3.163763,4.393755,-3.163859,4.348047,-3.174963,4.347770,-3.175022,4.292874,-3.185099,4.292656,-3.185134,4.226979,-3.194216,
4.226811,-3.194236,4.148763,-3.202357,4.148636,-3.202369,4.056622,-3.209559,3.948878,-3.215862,3.824101,-3.221290,3.680594,-3.225884,3.516798,-3.229675,3.331013,-3.232697,3.121749,-3.234979,2.887378,-3.236557,2.626309,-3.237460,2.336945,-3.237722,2.017694,-3.237375,1.666964,-3.236450,1.283163,-3.234979,0.864697,-3.232995,0.409973,-3.230530,-0.082598,-3.227615,-0.614613,-3.224284,
-1.078073,-3.221285,-1.360494,-3.219451,-1.681189,-3.217394,-2.036101,-3.215136,-2.421171,-3.212705,-2.421170,-3.212704,-2.832341,-3.210124,-3.265554,-3.207418,-3.716751,-3.204614,-4.181874,-3.201736,-4.656865,-3.198809,-5.137666,-3.195859,-5.620219,-3.192910,-5.620218,-3.192909,-6.100465,-3.189987,-6.574347,-3.187116,-7.037808,-3.184322,-7.428072,-3.181981,-8.143076,-3.177605,-8.816807,-3.173272,
-9.450322,-3.168967,-10.044682,-3.164672,-10.600944,-3.160371,-11.120167,-3.156047,-11.603411,-3.151683,-12.051735,-3.147262,-12.466198,-3.142768,-12.847858,-3.138183,-13.197767,-3.133492,-13.197775,-3.133491,-13.517009,-3.128676,-13.806618,-3.123720,-14.067661,-3.118607,-14.301200,-3.113320,-14.508293,-3.107842,-14.689972,-3.102157,-14.690004,-3.102155,-14.847391,-3.096244,-14.981520,-3.090091,-15.093378,-3.083682,
-15.184161,-3.076993,-15.184285,-3.076983,-15.254891,-3.070009,-15.255099,-3.069984,-15.306666,-3.062701,-15.307011,-3.062640,-15.334835,-3.056699,-15.335030,-3.056653,-15.357937,-3.050795,-15.358228,-3.050711,-15.377386,-3.044553,-15.378537,-3.044013,-15.392738,-3.034991,-15.394427,-3.033201,-15.402463,-3.018749,-15.403091,-3.016466,-15.403753,-2.994022,-15.403617,-2.992708,-15.395698,-2.959708,-15.395504,-2.959083,
-15.377794,-2.912963,-15.377661,-2.912649,-15.348954,-2.850846,-15.348871,-2.850677,-15.307957,-2.770625,-15.307907,-2.770529,-15.253548,-2.669612,-15.184578,-2.545342,-15.099785,-2.395147,-14.997958,-2.216460,-14.877886,-2.006711,-14.738360,-1.763334,-14.703069,-1.701771,-14.537250,-1.413292,-14.351091,-1.090897,-14.146004,-0.736981,-13.923404,-0.353941,-13.684706,0.055828,-13.431323,0.489927,-13.164671,0.945961,
-13.141413,0.985677,-9.179827,0.985677,-9.175900,0.966924,-9.163210,0.961639,-9.132089,0.971037,-9.078468,0.999793,-8.999173,1.049726,-8.890080,1.122698,-8.890081,1.122699,-8.886340,1.125239,-8.886339,1.125238,-8.637914,1.293973,-8.634167,1.294748,-8.634073,1.294729,-8.086031,1.179097,-8.086031,1.179096,-7.817469,1.123309,-7.817469,1.123310,-7.577992,1.075366,-7.577992,1.075365,
-7.369593,1.035614,-7.369593,1.035615,-7.193936,1.004344,-7.053029,0.981900,-6.948713,0.968597,-6.883070,0.964750,-6.865425,0.966519,-6.813809,0.993940,-6.744681,1.052265,-6.662952,1.135590,-6.573327,1.237851,-6.480360,1.353076,-6.388579,1.475298,-6.302461,1.598607,-6.226521,1.717040,-6.165277,1.824608,-6.123233,1.915290,-6.107175,1.967672,-6.103913,2.011338,-6.111673,2.025569,
-6.148035,2.011183,-6.211886,1.965078,-6.297445,1.890482,-6.401709,1.789904,-6.507191,1.681316,-6.722389,1.454142,-6.725884,1.452583,-6.726766,1.452637,-7.157169,1.517667,-7.401083,1.555367,-7.605528,1.588934,-7.772982,1.618946,-7.773096,1.618968,-7.906202,1.646033,-7.906391,1.646075,-8.007726,1.670787,-8.008057,1.670880,-8.080192,1.693834,-8.080835,1.694089,-8.126345,1.715879,
-8.127702,1.716834,-8.149161,1.738056,-8.150499,1.740412,-8.153012,1.750588,-8.152438,1.754372,-8.152271,1.754630,-8.137645,1.775794,-8.137287,1.776252,-8.094901,1.824468,-8.094806,1.824573,-8.027104,1.897327,-7.936667,1.991955,-7.825890,2.105994,-7.821100,2.110869,-5.556376,2.110869,-5.553845,1.989524,-5.540750,1.763666,-5.517804,1.574433,-5.483575,1.416855,-5.436647,1.285893,
-5.375596,1.176480,-5.298794,1.083320,-5.283477,1.068191,-5.164819,0.982603,-5.017834,0.923756,-4.846888,0.892302,-4.656696,0.889060,-4.451895,0.914820,-4.381361,0.929957,-4.173336,0.999757,-3.968921,1.108264,-3.772433,1.252111,-3.588392,1.427831,-3.421239,1.632025,-3.359027,1.722578,-3.219231,1.964190,-3.094251,2.237962,-2.983385,2.545926,-2.885991,2.890001,-2.801412,3.272132,
-2.773152,3.424032,-2.749674,3.586899,-2.733404,3.764181,-2.724440,3.946454,-2.722882,4.124214,-2.728826,4.287956,-2.742357,4.428138,-2.761529,4.528010,-2.830988,4.724934,-2.923812,4.886910,-3.039256,5.013586,-3.176664,5.104664,-3.335508,5.159816,-3.515293,5.178581,-3.713899,5.160674,-3.950452,5.098483,-4.177001,4.997653,-4.392002,4.860858,-4.593868,4.690790,-4.780981,4.490170,
-4.951783,4.261668,-5.104643,4.008049,-5.237987,3.732009,-5.350226,3.436267,-5.439766,3.123566,-5.505025,2.796627,-5.544420,2.458182,-5.556376,2.110869,-7.821100,2.110869,-7.697345,2.236798,-7.553491,2.381834,-7.396818,2.538539,-7.232236,2.701955,-7.030218,2.902236,-6.856714,3.075177,-6.709752,3.222840,-6.587369,3.347278,-6.487633,3.450508,-6.408523,3.534644,-6.348106,3.601703,
-6.304485,3.653654,-6.275670,3.692548,-6.261465,3.716604,-6.184977,3.909717,-6.139903,4.108080,-6.125876,4.305356,-6.142510,4.495217,-6.189400,4.671319,-6.266152,4.827427,-6.330999,4.914173,-6.429434,4.995718,-6.555360,5.052011,-6.703747,5.084031,-6.869219,5.092642,-7.046404,5.078785,-7.229909,5.043435,-7.414328,4.987600,-7.594344,4.912278,-7.764554,4.818511,-7.919624,4.707326,
-8.045608,4.589166,-8.168490,4.431346,-8.254007,4.265200,-8.300250,4.094914,-8.306985,4.031749,-8.310242,3.950640,-8.306281,3.899527,-8.293153,3.865608,-8.272540,3.839920,-8.208044,3.800385,-8.161316,3.793453,-8.102485,3.788020,-8.102069,3.787964,-8.023258,3.773946,-8.022997,3.773892,-7.967594,3.760960,-7.887107,3.744267,-7.837645,3.743200,-7.828420,3.747312,-7.820758,3.778126,
-7.824694,3.845583,-7.832674,3.898850,-7.832703,3.899082,-7.853569,4.102803,-7.853582,4.103671,-7.840565,4.284246,-7.840373,4.285304,-7.793020,4.445561,-7.792602,4.446561,-7.725049,4.568869,-7.724371,4.569816,-7.629402,4.674232,-7.628407,4.675074,-7.512372,4.749685,-7.511266,4.750217,-7.382025,4.793812,-7.380848,4.794056,-7.246262,4.805424,-7.245017,4.805374,-7.112945,4.783305,
-7.111657,4.782905,-6.989959,4.726186,-6.989071,4.725654,-6.941556,4.690026,-6.940840,4.689372,-6.868799,4.609372,-6.868289,4.608698,-6.799087,4.499261,-6.798796,4.498734,-6.738898,4.372604,-6.738680,4.372065,-6.694549,4.241981,-6.694403,4.241461,-6.679414,4.174113,-6.679331,4.173627,-6.667876,4.078797,-6.667840,4.078173,-6.668282,3.984891,-6.668337,3.984178,-6.682385,3.889891,
-6.682541,3.889191,-6.711906,3.791348,-6.712129,3.790747,-6.758519,3.686796,-6.758757,3.686331,-6.823882,3.573719,-6.824097,3.573379,-6.909666,3.449555,-6.909842,3.449316,-7.017565,3.311728,-7.017702,3.311561,-7.149288,3.157657,-7.149389,3.157542,-7.306548,2.984770,-7.306622,2.984691,-7.491113,2.790445,-7.704574,2.572253,-7.845758,2.430289,-8.083286,2.192218,-8.292207,1.981923,
-8.474194,1.797591,-8.630941,1.637384,-8.764050,1.499562,-8.875306,1.382194,-8.966212,1.283648,-9.038632,1.201903,-9.094069,1.135343,-9.134238,1.082124,-9.160764,1.040546,-9.175318,1.008992,-9.179827,0.985677,-13.141413,0.985677,-12.886163,1.421532,-12.886161,1.421534,-12.597210,1.914250,-12.299233,2.421708,-12.299231,2.421710,-11.993639,2.941520,-11.681849,3.471282,-11.365273,4.008600,
-11.045328,4.551078,-10.723425,5.096318,-10.400981,5.641925,-10.079410,6.185501,-9.760125,6.724650,-9.444542,7.256976,-9.134073,7.780082,-8.830135,8.291572,-8.534139,8.789048,-8.247503,9.270115,-7.971639,9.732377,-7.707964,10.173432,-7.707961,10.173435,-7.457886,10.590890,-7.457884,10.590895,-7.222826,10.982354,-7.222822,10.982359,-7.004191,11.345430,-6.970970,11.400493,-6.758543,11.751508,
-6.558802,12.079587,-6.372558,12.383450,-6.200621,12.661818,-6.043798,12.913412,-5.902900,13.136957,-5.778731,13.331176,-5.672099,13.494797,-5.583859,13.626470,-5.583799,13.626558,-5.514725,13.725058,-5.514599,13.725229,-5.465502,13.789276,-5.465205,13.789628,-5.444197,13.812351,-5.443636,13.812872,-5.409760,13.839788,-5.406290,13.840860,-5.381558,13.839074,-5.381558,13.839074,$1*%
G04 Aperture macros list end*
%ADD10RoundRect,0.218750X0.256250X-0.218750X0.256250X0.218750X-0.256250X0.218750X-0.256250X-0.218750X0*%
%ADD11RoundRect,0.218750X0.317568X0.112544X-0.061318X0.331294X-0.317568X-0.112544X0.061318X-0.331294X0*%
%ADD12RoundRect,0.218750X0.061318X0.331294X-0.317568X0.112544X-0.061318X-0.331294X0.317568X-0.112544X0*%
%ADD13RoundRect,0.218750X0.218750X0.256250X-0.218750X0.256250X-0.218750X-0.256250X0.218750X-0.256250X0*%
%ADD14FreePoly0,0.000000*%
G04 APERTURE END LIST*
D10*
X115554884Y-105702387D03*
X115554884Y-104127387D03*
D11*
X130537079Y-120294637D03*
X129173089Y-119507137D03*
D10*
X115453284Y-99428587D03*
X115453284Y-97853587D03*
D12*
X143338679Y-119278537D03*
X141974689Y-120066037D03*
X120758079Y-84302737D03*
X119394089Y-85090237D03*
D13*
X137094184Y-122517087D03*
X135519184Y-122517087D03*
D14*
X141539084Y-102252624D03*
D12*
X148291679Y-116509937D03*
X146927689Y-117297437D03*
D13*
X137094184Y-76390687D03*
X135519184Y-76390687D03*
D11*
X149256879Y-82956637D03*
X147892889Y-82169137D03*
D10*
X156880684Y-105676987D03*
X156880684Y-104101987D03*
D11*
X153727279Y-85572837D03*
X152363289Y-84785337D03*
D10*
X115427884Y-93967587D03*
X115427884Y-92392587D03*
X156906084Y-99326987D03*
X156906084Y-97751987D03*
D11*
X125736479Y-117475237D03*
X124372489Y-116687737D03*
D12*
X125050679Y-81737337D03*
X123686689Y-82524837D03*
X153397079Y-113385737D03*
X152033089Y-114173237D03*
D10*
X156829884Y-93942187D03*
X156829884Y-92367187D03*
D11*
X144303879Y-80035637D03*
X142939889Y-79248137D03*
X120961279Y-114605037D03*
X119597289Y-113817537D03*
D12*
X129296284Y-79159287D03*
X127932294Y-79946787D03*
M02*
